<svg width="449" height="449" viewBox="0 0 449 449" fill="none" xmlns="http://www.w3.org/2000/svg">
    <path d="M297.095 12.1941C412.886 51.9206 475.435 177.174 437.613 293.6C399.781 410.036 275.572 474.626 158.535 438.717C41.4958 402.799 -25.1175 279.665 8.87079 162.057C42.8581 44.4402 164.886 -24.1781 283.043 7.87761C285.386 8.51238 287.72 9.18621 290.045 9.89911C292.408 10.6218 294.761 11.3933 297.095 12.1941Z" fill="#F7B109"/>
    <path d="M242.46 48.6784C246.662 48.6295 254.257 48.0827 257.811 49.5377C257.806 58.6979 258.325 82.9851 257.226 90.8953C300.317 93.4148 350.015 101.901 346.714 158.053C344.741 191.589 319.849 206.813 291.46 217.487C332.651 227.077 362.476 244.372 360.513 291.95C358.188 348.464 304.155 358.493 257.622 359.264L257.673 399.967L226.757 400.026L226.765 359.801C219.715 359.762 208.939 359.342 202.296 360.534C203.401 366.618 203.626 393.571 202.516 399.342L172.03 399.362L172.07 359.792L87.9463 359.84L87.9306 324.518C96.1933 324.596 108.273 325.378 116.14 323.425C127.847 320.524 127.159 307.868 127.389 298.239C126.416 286.344 127.173 259.967 127.18 247.555L127.329 149.323C126.589 120.514 112.083 125.602 87.9609 125.895L87.9141 90.5729L172.033 90.5925L172.035 48.6394L202.992 48.6979L202.948 90.6022L226.757 90.5827C226.679 79.03 226.089 61.0808 227.034 50.0847C229.343 48.073 228.882 48.7566 232.938 48.7663L242.46 48.6784Z" fill="black"/>
    <path d="M202.91 125.876C237.463 125.505 278.687 123.259 271.05 173.307C269.878 180.993 266.655 186.179 261.479 191.823C245.172 204.343 222.567 202.614 202.945 202.575L202.91 125.876Z" fill="#F7B109"/>
    <path d="M203.212 237.066C223.869 236.91 252.192 234.859 269.161 248.717C285.177 261.783 286.104 294.459 272.599 309.742C262.608 321.051 248.218 323.795 233.899 324.605C232.063 326.519 230.886 327.388 230.099 329.927C232.573 330.689 234.614 329.839 237.209 329.195C237.414 331.461 231.217 337.447 229.409 339.224C225.364 335.113 219.24 329.263 215.608 325.064L203.207 325.025L203.212 237.066Z" fill="#F7B109"/>
    <path d="M215.608 325.064C221.63 325.181 227.863 324.83 233.899 324.605C232.063 326.519 230.886 327.388 230.099 329.927C232.573 330.689 234.614 329.839 237.209 329.195C237.414 331.461 231.217 337.447 229.409 339.224C225.364 335.113 219.24 329.263 215.608 325.064Z" fill="black"/>
</svg>
